<svg width="471" height="91" viewBox="0 0 471 91" fill="none" xmlns="http://www.w3.org/2000/svg">
<path d="M55.1094 8.82812C54.8594 10.1094 54.25 11.375 53.2812 12.625C52.3438 13.8438 51.2812 14.8906 50.0938 15.7656C49.9375 15.9219 49.625 16.0938 49.1562 16.2812C48.7188 16.4688 48.2344 16.6719 47.7031 16.8906C47.2031 17.0781 46.7031 17.25 46.2031 17.4062C45.7031 17.5625 45.3125 17.6562 45.0312 17.6875C44.7812 17.75 44.5781 17.7344 44.4219 17.6406C44.2969 17.5469 44.1719 17.4375 44.0469 17.3125C43.9219 17.1875 43.7656 17.0781 43.5781 16.9844C43.4219 16.8594 43.1875 16.7969 42.875 16.7969C42.5 16.7969 42.2656 16.7188 42.1719 16.5625C42.1094 16.375 42.1562 16.0469 42.3125 15.5781C42.375 15.4219 42.4844 15.2031 42.6406 14.9219C42.7969 14.6406 43.0469 14.2812 43.3906 13.8438C43.6406 13.5625 43.8438 13.25 44 12.9062C44.1875 12.5625 44.2188 12.25 44.0938 11.9688C44 11.6562 43.7031 11.4062 43.2031 11.2188C42.7031 11.0312 41.9219 10.9375 40.8594 10.9375C39.7656 10.9375 38.3594 11.0781 36.6406 11.3594C34.7656 11.6094 32.8125 12.0781 30.7812 12.7656C28.7812 13.4531 26.8281 14.25 24.9219 15.1562C23.0469 16.0625 21.3125 17.0312 19.7188 18.0625C18.125 19.0938 16.8125 20.1094 15.7812 21.1094C14.7812 22.0781 14.1406 23 13.8594 23.875C13.5781 24.7188 13.8125 25.4062 14.5625 25.9375C15.2188 26.4062 16.2188 26.8125 17.5625 27.1562C18.9062 27.4688 20.4531 27.7656 22.2031 28.0469C23.9531 28.2969 25.8281 28.5781 27.8281 28.8906C29.8281 29.1719 31.8125 29.5156 33.7812 29.9219C35.7812 30.3281 37.6719 30.8281 39.4531 31.4219C41.2656 32.0156 42.8594 32.75 44.2344 33.625C45.2031 34.2812 46.0156 34.9062 46.6719 35.5C47.3281 36.0938 47.8594 36.6875 48.2656 37.2812C48.6719 37.8438 49 38.4062 49.25 38.9688C49.5 39.5 49.7188 40.0469 49.9062 40.6094C50.0312 40.9531 50.25 41.3438 50.5625 41.7812C50.9062 42.1875 51.2656 42.6875 51.6406 43.2812C52.0156 43.875 52.3594 44.5625 52.6719 45.3438C52.9844 46.0938 53.1875 46.9844 53.2812 48.0156C53.4062 50.0781 52.9844 52.0312 52.0156 53.875C51.0781 55.7188 49.8438 57.4219 48.3125 58.9844C46.8125 60.5469 45.1406 61.9531 43.2969 63.2031C41.4531 64.4219 39.6875 65.4375 38 66.25C36.5312 66.9688 34.9688 67.6406 33.3125 68.2656C31.6562 68.8906 29.9531 69.4375 28.2031 69.9062C26.4531 70.3438 24.6719 70.6875 22.8594 70.9375C21.0781 71.2188 19.3125 71.3594 17.5625 71.3594C14.6562 71.3594 11.9219 70.9531 9.35938 70.1406C6.82812 69.3594 4.625 68.0312 2.75 66.1562C1.84375 65.1875 1.1875 64.2188 0.78125 63.25C0.375 62.25 0.171875 61.2656 0.171875 60.2969C0.171875 59.1406 0.40625 58.0156 0.875 56.9219C1.34375 55.8281 1.95312 54.7969 2.70312 53.8281C3.45312 52.8594 4.28125 52 5.1875 51.25C6.09375 50.4688 6.98438 49.8438 7.85938 49.375C9.07812 48.6875 10.3438 48.0312 11.6562 47.4062C13 46.75 14.3438 46.1719 15.6875 45.6719C17.0312 45.1406 18.375 44.7031 19.7188 44.3594C21.0625 44.0156 22.3594 43.7969 23.6094 43.7031C24.1406 43.6406 24.8125 43.5781 25.625 43.5156C26.4375 43.4531 27.2031 43.4219 27.9219 43.4219C28.3906 43.4219 28.7812 43.5469 29.0938 43.7969C29.4062 44.0469 29.5312 44.2656 29.4688 44.4531C29.3125 44.7969 29.0312 44.9688 28.625 44.9688C28.25 44.9688 27.7969 45.0312 27.2656 45.1562C26.6719 45.3125 26.0781 45.4219 25.4844 45.4844C24.8906 45.5469 24.3594 45.6562 23.8906 45.8125C20.3281 46.625 17.3125 47.6562 14.8438 48.9062C12.4062 50.1562 10.4531 51.4219 8.98438 52.7031C7.54688 53.9844 6.5625 55.2031 6.03125 56.3594C5.5 57.4844 5.34375 58.3438 5.5625 58.9375C5.875 59.7812 6.45312 60.4375 7.29688 60.9062C8.14062 61.375 9.09375 61.7188 10.1562 61.9375C11.2188 62.125 12.2969 62.2344 13.3906 62.2656C14.4844 62.2969 15.4219 62.2812 16.2031 62.2188C18.0156 62.125 20.0312 61.8594 22.25 61.4219C24.5 60.9844 26.7656 60.4062 29.0469 59.6875C31.3594 58.9688 33.6094 58.125 35.7969 57.1562C37.9844 56.1562 39.9219 55.0781 41.6094 53.9219C43.2969 52.7344 44.6562 51.4688 45.6875 50.125C46.7188 48.75 47.2344 47.3125 47.2344 45.8125C47.2344 45.3125 47.1562 44.8281 47 44.3594C46.875 43.8594 46.6875 43.3438 46.4375 42.8125C45.9688 41.9062 45.0781 41.1406 43.7656 40.5156C42.4531 39.8594 40.875 39.3125 39.0312 38.875C37.2188 38.4062 35.2344 38 33.0781 37.6562C30.9531 37.2812 28.8438 36.9062 26.75 36.5312C24.6875 36.1562 22.7188 35.7344 20.8438 35.2656C18.9688 34.7969 17.3906 34.2188 16.1094 33.5312C14.6719 32.75 13.6094 31.9844 12.9219 31.2344C12.2656 30.4531 11.8906 29.4844 11.7969 28.3281C11.7656 28.2031 11.6719 27.9844 11.5156 27.6719C11.3594 27.3594 11.1719 27.0312 10.9531 26.6875C10.7656 26.3438 10.5781 26.0156 10.3906 25.7031C10.2031 25.3906 10.0625 25.1406 9.96875 24.9531C9.46875 24.0469 9.21875 23.0625 9.21875 22C9.21875 20.8125 9.48438 19.5938 10.0156 18.3438C10.5781 17.0938 11.2656 16.0156 12.0781 15.1094C13.5781 13.3906 15.5469 11.7969 17.9844 10.3281C20.4531 8.85938 23.1406 7.57812 26.0469 6.48438C28.9531 5.39063 31.9375 4.51562 35 3.85938C38.0938 3.17187 41.0156 2.78125 43.7656 2.6875C44.8906 2.65625 46.1562 2.73438 47.5625 2.92188C48.9688 3.10938 50.2656 3.45312 51.4531 3.95312C52.6719 4.42188 53.6406 5.0625 54.3594 5.875C55.0781 6.65625 55.3281 7.64063 55.1094 8.82812ZM118.156 7.23438C118 7.54688 117.844 7.79688 117.688 7.98438C117.562 8.17188 117.453 8.3125 117.359 8.40625C117.234 8.53125 117.125 8.60937 117.031 8.64062C116.781 8.70312 116.281 8.79687 115.531 8.92188C114.781 9.01562 113.766 9.09375 112.484 9.15625C111.547 9.21875 110.266 9.35938 108.641 9.57812C107.016 9.76562 105.156 10.0156 103.062 10.3281C101 10.6094 98.75 10.9062 96.3125 11.2188C93.875 11.5312 91.3438 11.7969 88.7188 12.0156C88.4688 16.3906 88.2812 20.8594 88.1562 25.4219C88.0625 29.9844 87.9844 34.5781 87.9219 39.2031C87.8594 43.7969 87.7969 48.3906 87.7344 52.9844C87.7031 57.5469 87.6406 62.0312 87.5469 66.4375C87.5469 66.5938 87.4844 66.75 87.3594 66.9062C87.2344 67.0312 87.1406 67.1406 87.0781 67.2344C86.9219 67.8594 86.6406 68.4062 86.2344 68.875C85.8281 69.3125 85.4062 69.5312 84.9688 69.5312C83.6562 69.5312 82.6406 69.3281 81.9219 68.9219C81.2344 68.5156 80.6406 68.0781 80.1406 67.6094C79.9219 67.3281 79.7031 66.9219 79.4844 66.3906C79.2969 65.8281 79.125 65.2188 78.9688 64.5625C78.8125 63.875 78.6719 63.1562 78.5469 62.4062C78.4219 61.625 78.3438 60.8906 78.3125 60.2031C78.25 59.5156 78.2031 58.8438 78.1719 58.1875C78.1406 57.5312 78.125 56.8594 78.125 56.1719C78.125 54.6719 78.1719 53.2031 78.2656 51.7656C78.3594 50.3281 78.4375 48.9844 78.5 47.7344C78.5312 46.9531 78.5781 45.8438 78.6406 44.4062C78.7344 42.9688 78.8438 41.3281 78.9688 39.4844C79.0938 37.6406 79.2344 35.6719 79.3906 33.5781C79.5469 31.4531 79.7344 29.3281 79.9531 27.2031C80.2031 25.0781 80.4688 23.0156 80.75 21.0156C81.0312 18.9844 81.3438 17.1406 81.6875 15.4844C81.8438 14.9844 81.9844 14.5 82.1094 14.0312C82.2344 13.5312 82.3438 13.0156 82.4375 12.4844C79.5625 12.6719 76.75 12.7656 74 12.7656C70.4688 12.7656 67.1094 12.5625 63.9219 12.1562C60.7344 11.7188 58.0156 10.9688 55.7656 9.90625C55.4844 9.75 55.3281 9.46875 55.2969 9.0625C55.2344 8.65625 55.1094 8.23437 54.9219 7.79688C54.6719 7.45313 54.5781 7.07813 54.6406 6.67188C54.7031 6.23438 54.7344 5.875 54.7344 5.59375C54.7031 5.3125 54.7969 5.125 55.0156 5.03125C55.2031 4.9375 55.6094 4.90625 56.2344 4.9375C56.8281 4.9375 57.6562 4.96875 58.7188 5.03125C59.8125 5.09375 61.2344 5.125 62.9844 5.125C64.2969 5.125 65.7969 5.09375 67.4844 5.03125C69.1719 4.96875 71.0938 4.85937 73.25 4.70312C74.3125 4.60938 75.8438 4.46875 77.8438 4.28125C79.875 4.0625 82.1562 3.85938 84.6875 3.67188C87.25 3.45312 89.9688 3.26562 92.8438 3.10938C95.7188 2.95313 98.5625 2.875 101.375 2.875C102.438 2.875 103.625 2.9375 104.938 3.0625C106.25 3.15625 107.547 3.29688 108.828 3.48438C110.141 3.67188 111.344 3.89063 112.438 4.14062C113.562 4.39062 114.484 4.64063 115.203 4.89062C115.672 5.07812 115.953 5.25 116.047 5.40625C116.141 5.53125 116.172 5.64062 116.141 5.73438C116.141 5.82812 116.125 5.90625 116.094 5.96875C116.062 6.03125 116.141 6.09375 116.328 6.15625C116.516 6.21875 116.719 6.26562 116.938 6.29688C117.156 6.32813 117.359 6.39062 117.547 6.48438C117.734 6.54687 117.891 6.64062 118.016 6.76562C118.141 6.89063 118.188 7.04688 118.156 7.23438ZM126.172 67.0469C126.203 67.4844 126.078 67.9219 125.797 68.3594C125.547 68.7656 125.234 69.1406 124.859 69.4844C124.516 69.8281 124.156 70.0938 123.781 70.2812C123.438 70.5 123.172 70.625 122.984 70.6562C122.547 70.7188 122.062 70.6719 121.531 70.5156C121 70.3594 120.594 70.1562 120.312 69.9062C120.094 69.7188 119.938 69.5 119.844 69.25C119.781 68.9688 119.703 68.5781 119.609 68.0781C119.453 67.3594 119.297 66.7812 119.141 66.3438C119.016 65.875 118.906 65.4844 118.812 65.1719C118.719 64.8281 118.625 64.5156 118.531 64.2344C118.469 63.9531 118.422 63.6094 118.391 63.2031C118.047 59.3906 117.844 55.5938 117.781 51.8125C117.719 48 117.75 44.3438 117.875 40.8438C118 37.3438 118.188 34.0938 118.438 31.0938C118.719 28.0625 118.984 25.4375 119.234 23.2188C119.516 20.9688 119.766 19.1875 119.984 17.875C120.203 16.5625 120.344 15.8594 120.406 15.7656C120.5 15.5156 120.766 15.2812 121.203 15.0625C121.672 14.8438 122.203 14.6875 122.797 14.5938C123.234 14.5312 123.562 14.4688 123.781 14.4062C124 14.3438 124.188 14.2812 124.344 14.2188C124.5 14.125 124.672 14.0469 124.859 13.9844C125.078 13.8906 125.406 13.7812 125.844 13.6562C126.219 13.5625 126.438 13.75 126.5 14.2188C126.562 14.6875 126.547 15.5469 126.453 16.7969C126.359 18.0469 126.219 19.75 126.031 21.9062C125.875 24.0625 125.75 26.7812 125.656 30.0625C126 30.125 126.375 30.1562 126.781 30.1562C127.219 30.1562 127.688 30.1562 128.188 30.1562C129.844 30.1562 131.766 29.9844 133.953 29.6406C136.141 29.2969 138.328 28.6875 140.516 27.8125C142.734 26.9062 144.828 25.6875 146.797 24.1562C148.766 22.5938 150.359 20.625 151.578 18.25C151.766 17.7812 151.859 17.2344 151.859 16.6094C151.859 15.7344 151.562 14.875 150.969 14.0312C150.406 13.1562 149.5 12.3906 148.25 11.7344C147 11.0469 145.375 10.5 143.375 10.0938C141.375 9.65625 138.969 9.4375 136.156 9.4375C134.5 9.4375 132.781 9.5625 131 9.8125C129.219 10.0625 127.406 10.4688 125.562 11.0312C123.719 11.5938 121.859 12.3281 119.984 13.2344C118.109 14.1406 116.266 15.2656 114.453 16.6094C114.359 16.7031 114.188 16.7812 113.938 16.8438C113.688 16.875 113.438 16.8906 113.188 16.8906C112.719 16.8906 112.266 16.7188 111.828 16.375C111.391 16.0312 111.172 15.6719 111.172 15.2969C111.172 15.1094 111.234 14.9531 111.359 14.8281C111.484 14.6719 111.625 14.5312 111.781 14.4062C111.969 14.2812 112.125 14.1719 112.25 14.0781C112.375 13.9844 112.438 13.9062 112.438 13.8438C112.438 13.75 112.375 13.625 112.25 13.4688C112.125 13.3125 112.062 13.1094 112.062 12.8594C112.062 12.8281 111.984 12.7969 111.828 12.7656C111.672 12.7344 111.484 12.6875 111.266 12.625C111.078 12.5625 110.906 12.4688 110.75 12.3438C110.594 12.1875 110.516 11.9844 110.516 11.7344C110.516 11.5469 110.609 11.3906 110.797 11.2656C111.016 11.1406 111.266 10.9688 111.547 10.75C111.922 10.5312 112.578 10.1094 113.516 9.48438C114.453 8.85938 115.578 8.15625 116.891 7.375C118.234 6.59375 119.719 5.78125 121.344 4.9375C122.969 4.09375 124.672 3.32813 126.453 2.64062C128.266 1.92188 130.109 1.34375 131.984 0.90625C133.859 0.4375 135.688 0.203125 137.469 0.203125C139.281 0.203125 141.016 0.515625 142.672 1.14062C144.328 1.76562 145.875 2.59375 147.312 3.625C148.75 4.65625 150.047 5.85938 151.203 7.23438C152.359 8.57813 153.344 10 154.156 11.5C155 12.9688 155.641 14.4688 156.078 16C156.547 17.5 156.781 18.9219 156.781 20.2656C156.781 21.8281 156.266 23.3281 155.234 24.7656C154.234 26.2031 152.938 27.5469 151.344 28.7969C149.781 30.0469 148.062 31.1875 146.188 32.2188C144.312 33.2188 142.531 34.0938 140.844 34.8438C139.25 35.5312 137.609 36.0312 135.922 36.3438C134.266 36.625 132.734 36.7969 131.328 36.8594C132.891 37.4531 134.531 38.2656 136.25 39.2969C138 40.3281 139.719 41.7656 141.406 43.6094C142.25 44.5469 143.078 45.8125 143.891 47.4062C144.703 48.9688 145.516 50.7031 146.328 52.6094C147.141 54.5156 147.953 56.5312 148.766 58.6562C149.609 60.7812 150.484 62.8906 151.391 64.9844C152.328 67.0469 153.312 69.0156 154.344 70.8906C155.406 72.7969 156.531 74.4688 157.719 75.9062C158.938 77.3438 160.234 78.4844 161.609 79.3281C163.016 80.2031 164.547 80.6406 166.203 80.6406C167.703 80.6406 169.328 80.25 171.078 79.4688C172.859 78.7188 174.781 77.4219 176.844 75.5781C177.625 74.9531 178.125 74.4531 178.344 74.0781C178.594 73.7344 178.766 73.5625 178.859 73.5625C178.953 73.5625 179.016 73.625 179.047 73.75C179.109 73.875 179.141 74 179.141 74.125C179.172 74.2812 179.188 74.4219 179.188 74.5469C179.188 74.6719 179.203 74.75 179.234 74.7812V74.875C179.234 75.0312 179.172 75.1719 179.047 75.2969C179.141 75.2969 179.203 75.3438 179.234 75.4375C179.297 75.5625 179.328 75.7031 179.328 75.8594C179.328 76.1094 179.266 76.3594 179.141 76.6094C178.922 76.9219 178.656 77.4688 178.344 78.25C178.031 79.0625 177.609 79.9688 177.078 80.9688C176.578 81.9688 175.953 83 175.203 84.0625C174.453 85.1562 173.531 86.1562 172.438 87.0625C171.375 87.9688 170.094 88.7031 168.594 89.2656C167.094 89.8594 165.359 90.1562 163.391 90.1562C162.203 90.1562 160.969 90 159.688 89.6875C158.438 89.375 157.172 88.8281 155.891 88.0469C154.641 87.2969 153.391 86.2969 152.141 85.0469C150.891 83.7969 149.688 82.2344 148.531 80.3594C147.938 79.4531 147.312 78.0312 146.656 76.0938C146.031 74.1562 145.359 71.9688 144.641 69.5312C143.953 67.0625 143.219 64.4688 142.438 61.75C141.656 59.0312 140.812 56.4219 139.906 53.9219C139 51.4219 138.016 49.1719 136.953 47.1719C135.922 45.1406 134.812 43.5938 133.625 42.5312C132.969 41.9688 132.297 41.4219 131.609 40.8906C130.922 40.3594 130.234 39.9062 129.547 39.5312C128.891 39.125 128.234 38.8125 127.578 38.5938C126.922 38.3438 126.312 38.2188 125.75 38.2188H125.562C125.562 39.9062 125.562 41.7031 125.562 43.6094C125.594 45.5156 125.609 47.4375 125.609 49.375C125.641 51.2812 125.672 53.1562 125.703 55C125.734 56.8438 125.766 58.5625 125.797 60.1562C125.859 61.7188 125.922 63.1094 125.984 64.3281C126.047 65.5156 126.109 66.4219 126.172 67.0469ZM217.203 61.2812C217.203 61.4062 217.125 61.6406 216.969 61.9844C216.812 62.3281 216.625 62.6875 216.406 63.0625C216.219 63.4375 216 63.7969 215.75 64.1406C215.531 64.4531 215.344 64.6406 215.188 64.7031C215.094 64.7656 214.672 64.9375 213.922 65.2188C213.203 65.4688 212.234 65.7812 211.016 66.1562C209.797 66.5 208.359 66.875 206.703 67.2812C205.078 67.6875 203.297 68.0781 201.359 68.4531C199.453 68.7969 197.406 69.0938 195.219 69.3438C193.062 69.5625 190.859 69.6875 188.609 69.7188C186.734 69.7812 184.984 69.8438 183.359 69.9062C181.734 69.9688 180.219 70 178.812 70C178.031 70 177.281 69.9844 176.562 69.9531C175.875 69.9219 175.219 69.875 174.594 69.8125C173.719 69.7188 172.875 69.6094 172.062 69.4844C171.344 69.3594 170.594 69.2031 169.812 69.0156C169.062 68.8281 168.406 68.5781 167.844 68.2656C167.688 68.2344 167.547 68.1562 167.422 68.0312C167.172 67.8438 167.062 67.5781 167.094 67.2344C166.812 67.0781 166.609 66.9062 166.484 66.7188C166.422 66.625 166.375 66.5625 166.344 66.5312C166.344 66.4688 166.359 66.3906 166.391 66.2969C166.422 66.1719 166.562 65.9375 166.812 65.5938C166.594 65.5625 166.422 65.5 166.297 65.4062C166.203 65.3125 166.125 65.2031 166.062 65.0781C165.969 64.9531 165.922 64.7969 165.922 64.6094C165.922 64.4219 165.953 64.2344 166.016 64.0469C166.078 63.8906 166.156 63.7188 166.25 63.5312C166.375 63.3125 166.562 63.0938 166.812 62.875C166.812 62.4688 166.859 62.1719 166.953 61.9844C166.984 61.8594 167.031 61.7812 167.094 61.75C167.125 61.6562 167.25 61.5625 167.469 61.4688C167.688 61.375 167.938 61.2969 168.219 61.2344C168.5 61.1719 168.781 61.125 169.062 61.0938C169.375 61.0625 169.641 61.0625 169.859 61.0938L169.953 61.1875C170.016 59.125 170.094 56.8906 170.188 54.4844C170.281 52.0781 170.375 49.8438 170.469 47.7812C170.594 45.375 170.719 42.9844 170.844 40.6094C170.969 37.6719 171.156 34.5781 171.406 31.3281C171.625 28.5469 171.891 25.4219 172.203 21.9531C172.516 18.4844 172.922 14.9531 173.422 11.3594L168.031 11.4531C167.688 11.4531 167.359 11.4062 167.047 11.3125C166.797 11.25 166.531 11.1406 166.25 10.9844C165.969 10.8281 165.766 10.5938 165.641 10.2812C165.141 10.2188 164.766 10.125 164.516 10C164.297 9.875 164.125 9.75 164 9.625C163.875 9.5 163.812 9.34375 163.812 9.15625C163.875 8.8125 163.984 8.54688 164.141 8.35938C164.297 8.17188 164.609 7.95312 165.078 7.70312C165.609 7.51562 165.984 7.28125 166.203 7C166.453 6.6875 166.719 6.5 167 6.4375C167.125 6.40625 167.859 6.26562 169.203 6.01562C170.547 5.73438 172.25 5.42187 174.312 5.07812C176.375 4.70312 178.688 4.35938 181.25 4.04688C183.812 3.70313 186.359 3.45312 188.891 3.29688C191.047 3.14063 193.188 3.04688 195.312 3.01562C197.469 2.98437 199.484 2.96875 201.359 2.96875C203.922 2.96875 206.078 3 207.828 3.0625C209.578 3.125 210.625 3.20312 210.969 3.29688C211.188 3.35937 211.406 3.46875 211.625 3.625C211.781 3.78125 211.953 4 212.141 4.28125C212.328 4.53125 212.484 4.875 212.609 5.3125C212.859 5.4375 213.031 5.5625 213.125 5.6875C213.25 5.78125 213.344 5.875 213.406 5.96875L213.547 6.25C213.547 6.4375 213.547 6.67188 213.547 6.95312C213.547 7.20312 213.516 7.42188 213.453 7.60938C213.422 7.67187 213.359 7.73438 213.266 7.79688C213.203 7.85937 213.109 7.92188 212.984 7.98438C212.891 8.04687 212.766 8.10938 212.609 8.17188C212.641 8.60937 212.641 8.95313 212.609 9.20312C212.578 9.45312 212.531 9.65625 212.469 9.8125C212.406 9.96875 212.328 10.0938 212.234 10.1875C212.016 10.3438 211.641 10.4688 211.109 10.5625C210.609 10.625 209.672 10.6562 208.297 10.6562L179.281 11.2656C179.188 12.1719 179.094 13.25 179 14.5C178.938 15.7188 178.859 17.0312 178.766 18.4375C178.703 19.8438 178.625 21.2812 178.531 22.75C178.469 24.2188 178.406 25.6406 178.344 27.0156C178.281 28.3594 178.219 29.6094 178.156 30.7656C178.094 31.9219 178.047 32.875 178.016 33.625C179.203 33.2812 180.516 33.0156 181.953 32.8281C183.391 32.6094 184.734 32.4375 185.984 32.3125C187.453 32.1875 188.906 32.0781 190.344 31.9844C191.25 31.9219 192.125 31.8906 192.969 31.8906C193.812 31.8906 194.625 31.8906 195.406 31.8906C198.531 31.8906 200.938 31.9531 202.625 32.0781C204.344 32.2031 205.328 32.2969 205.578 32.3594C205.766 32.3906 205.969 32.5156 206.188 32.7344C206.406 32.9531 206.609 33.2188 206.797 33.5312C206.984 33.8125 207.141 34.1406 207.266 34.5156C207.422 34.8594 207.5 35.1719 207.5 35.4531C207.5 35.9844 207.359 36.5469 207.078 37.1406C206.797 37.7344 206.562 38.2188 206.375 38.5938C206.125 39 205.797 39.3906 205.391 39.7656C204.984 40.1406 204.641 40.2969 204.359 40.2344C204.266 40.2344 203.875 40.2188 203.188 40.1875C202.5 40.1562 201.641 40.125 200.609 40.0938C199.609 40.0312 198.516 39.9844 197.328 39.9531C196.141 39.9219 194.984 39.8906 193.859 39.8594C192.734 39.8281 191.719 39.8125 190.812 39.8125C189.938 39.7812 189.297 39.7656 188.891 39.7656C188.391 39.7656 187.656 39.8125 186.688 39.9062C185.875 39.9688 184.75 40.0781 183.312 40.2344C181.875 40.3906 180.047 40.6094 177.828 40.8906C177.766 42.1719 177.734 43.5156 177.734 44.9219C177.734 46.3281 177.734 47.8125 177.734 49.375C177.734 51.5312 177.766 53.6719 177.828 55.7969C177.891 57.8906 178 59.7812 178.156 61.4688H183.219C185 61.4688 186.766 61.4531 188.516 61.4219C190.266 61.3594 191.859 61.2812 193.297 61.1875C195.391 61.0312 197.375 60.8594 199.25 60.6719C201.156 60.4844 202.859 60.3125 204.359 60.1562C205.859 60 207.109 59.8906 208.109 59.8281C209.109 59.7344 209.734 59.7031 209.984 59.7344C210.234 59.7969 210.562 59.8125 210.969 59.7812C211.406 59.75 211.859 59.7031 212.328 59.6406C212.797 59.5781 213.25 59.5156 213.688 59.4531C214.125 59.3906 214.469 59.3281 214.719 59.2656C214.938 59.2344 215.188 59.2969 215.469 59.4531C215.75 59.5781 216.016 59.7656 216.266 60.0156C216.516 60.2344 216.719 60.4688 216.875 60.7188C217.062 60.9688 217.172 61.1562 217.203 61.2812ZM268.812 68.6406C268.812 68.8906 268.656 69.0312 268.344 69.0625C268.031 69.0625 267.703 69.0625 267.359 69.0625C267.203 69.0938 267.047 69.125 266.891 69.1562C266.734 69.2188 266.562 69.2812 266.375 69.3438C266.219 69.375 266.062 69.4688 265.906 69.625C265.969 69.9375 265.984 70.1719 265.953 70.3281C265.953 70.5156 265.953 70.6562 265.953 70.75L265.906 70.9375C265.812 71.0625 265.625 71.1562 265.344 71.2188C265.062 71.3125 264.766 71.3594 264.453 71.3594C264.391 71.3594 264.297 71.3438 264.172 71.3125C263.953 71.25 263.734 71.0938 263.516 70.8438C262.984 70.6875 262.359 70.5312 261.641 70.375C261.266 70.2812 260.859 70.1875 260.422 70.0938C260.078 70 259.781 69.75 259.531 69.3438C259.281 68.9375 259.047 68.4688 258.828 67.9375C258.641 67.375 258.453 66.8125 258.266 66.25C258.109 65.6562 257.969 65.1406 257.844 64.7031L253.25 50.2188C252.562 50.2188 251.688 50.2344 250.625 50.2656C249.594 50.2656 248.484 50.2812 247.297 50.3125C246.109 50.3125 244.906 50.3438 243.688 50.4062C242.469 50.4375 241.359 50.4688 240.359 50.5L230.984 50.9688L225.5 65.3125C225.406 65.4688 225.266 65.7812 225.078 66.25C224.922 66.7188 224.75 67.2188 224.562 67.75C224.375 68.25 224.203 68.7344 224.047 69.2031C223.891 69.6406 223.797 69.9062 223.766 70C223.703 70.25 223.516 70.4062 223.203 70.4688C222.891 70.5312 222.625 70.5938 222.406 70.6562C222.219 70.7188 222.062 70.8906 221.938 71.1719C221.812 71.4531 221.625 71.6406 221.375 71.7344C221.125 71.8906 220.812 71.9062 220.438 71.7812C220.062 71.6562 219.734 71.4531 219.453 71.1719C219.203 70.8594 219.109 70.4688 219.172 70C219.234 69.5 219.266 68.9844 219.266 68.4531C219.266 67.9219 219.25 67.4219 219.219 66.9531C219.219 66.4844 219.297 66.0312 219.453 65.5938C219.516 65.4062 219.703 64.8281 220.016 63.8594C220.359 62.8594 220.781 61.6719 221.281 60.2969C221.781 58.8906 222.328 57.375 222.922 55.75C223.516 54.0938 224.125 52.5 224.75 50.9688C224.188 50.9688 223.797 50.8125 223.578 50.5C223.422 50.25 223.234 50.1094 223.016 50.0781C222.797 50.0156 222.562 49.9375 222.312 49.8438C222.062 49.7812 221.891 49.6406 221.797 49.4219C221.703 49.2031 221.688 49.0156 221.75 48.8594C221.812 48.6719 221.766 48.5156 221.609 48.3906C221.453 48.2656 221.375 47.9844 221.375 47.5469C221.375 47.3594 221.516 47.1875 221.797 47.0312C222.109 46.8438 222.484 46.6875 222.922 46.5625C223.359 46.4375 223.844 46.3281 224.375 46.2344C224.938 46.1406 225.469 46.0625 225.969 46C226.062 46 226.172 46 226.297 46C226.453 46 226.609 45.9688 226.766 45.9062C227.453 44.25 228.234 42.4688 229.109 40.5625C229.984 38.625 230.875 36.6562 231.781 34.6562C232.719 32.6562 233.656 30.6562 234.594 28.6562C235.531 26.6562 236.422 24.7812 237.266 23.0312C238.109 21.25 238.875 19.625 239.562 18.1562C240.281 16.6875 240.875 15.4688 241.344 14.5C240.969 13.3438 240.625 12.2812 240.312 11.3125C240.031 10.3438 239.781 9.5 239.562 8.78125C239.344 8.0625 239.172 7.5 239.047 7.09375C238.922 6.65625 238.859 6.40625 238.859 6.34375C238.828 6.28125 238.828 6.21875 238.859 6.15625C238.922 6 239.078 5.90625 239.328 5.875C239.078 5.40625 238.953 5.0625 238.953 4.84375C238.953 4.71875 238.984 4.64063 239.047 4.60938C239.109 4.54688 239.266 4.48437 239.516 4.42188C239.766 4.35938 240.031 4.3125 240.312 4.28125C240.594 4.21875 240.859 4.1875 241.109 4.1875C241.359 4.15625 241.531 4.14062 241.625 4.14062C241.656 4.14062 241.734 4.15625 241.859 4.1875C242.047 4.25 242.312 4.39062 242.656 4.60938C242.688 4.45313 242.719 4.34375 242.75 4.28125C242.812 4.21875 242.875 4.15625 242.938 4.09375L243.078 3.95312C243.266 3.85938 243.469 3.84375 243.688 3.90625C243.906 3.9375 244.109 3.95312 244.297 3.95312C244.484 3.95312 244.609 3.875 244.672 3.71875C244.766 3.5625 244.969 3.48438 245.281 3.48438C245.688 3.48438 246.031 3.92187 246.312 4.79688C246.344 4.95312 246.562 5.54688 246.969 6.57812C247.375 7.57812 247.891 8.90625 248.516 10.5625C249.141 12.1875 249.859 14.0781 250.672 16.2344C251.516 18.3906 252.391 20.6875 253.297 23.125C254.203 25.5312 255.109 28.0312 256.016 30.625C256.953 33.1875 257.844 35.7188 258.688 38.2188C260.438 43.3125 261.906 47.6094 263.094 51.1094C264.281 54.6094 265.234 57.4688 265.953 59.6875C266.703 61.9062 267.25 63.5625 267.594 64.6562C267.969 65.75 268.203 66.4062 268.297 66.625C268.453 67.125 268.578 67.5312 268.672 67.8438C268.766 68.125 268.812 68.3906 268.812 68.6406ZM248.609 36.5781C247.797 34.2656 246.906 31.6719 245.938 28.7969C245 25.9219 244.078 23.0781 243.172 20.2656C242.641 21.6406 242 23.2969 241.25 25.2344C240.5 27.1719 239.703 29.1719 238.859 31.2344C238.047 33.2969 237.25 35.3125 236.469 37.2812C235.688 39.25 235 40.9375 234.406 42.3438L233.094 45.4375L241.531 44.9219C242.25 44.9219 243.109 44.9062 244.109 44.875C245.797 44.8438 248.234 44.7969 251.422 44.7344L248.609 36.5781ZM340.109 68.2656C340.047 68.5156 340.016 68.7656 340.016 69.0156C340.047 69.2344 340.031 69.3906 339.969 69.4844C339.938 69.5781 339.828 69.5625 339.641 69.4375C339.453 69.2812 339.125 68.9531 338.656 68.4531L337.438 68.0781L336.922 68.5938C336.828 68.6875 336.734 68.7656 336.641 68.8281C336.391 69.0469 336.156 69.0781 335.938 68.9219C335.75 68.7344 335.5 68.5156 335.188 68.2656C334.938 68.0469 334.75 67.9062 334.625 67.8438C334.531 67.7812 334.469 67.7812 334.438 67.8438C334.438 67.875 334.438 67.9844 334.438 68.1719C334.469 68.3281 334.469 68.5156 334.438 68.7344C334.438 68.8281 334.359 69 334.203 69.25C334.047 69.4688 333.969 69.625 333.969 69.7188C333.906 70 333.812 70.0938 333.688 70C333.562 69.9062 333.438 69.875 333.312 69.9062C333.25 69.9062 333.156 69.875 333.031 69.8125C332.938 69.75 332.812 69.6562 332.656 69.5312C332.531 69.4062 332.391 69.2031 332.234 68.9219C332.109 68.6094 332 68.3594 331.906 68.1719C331.812 67.9531 331.719 67.7344 331.625 67.5156C331.531 67.2969 331.422 67.0312 331.297 66.7188C331.203 66.4062 331.094 66 330.969 65.5C330.875 65 330.75 64.0781 330.594 62.7344C330.438 61.3906 330.266 59.7812 330.078 57.9062C329.891 56 329.672 53.875 329.422 51.5312C329.203 49.1875 328.969 46.7344 328.719 44.1719C328.5 41.6094 328.266 39.0156 328.016 36.3906C327.766 33.7344 327.531 31.1719 327.312 28.7031C327.094 26.2031 326.891 23.8438 326.703 21.625C326.516 19.4062 326.344 17.4531 326.188 15.7656L306.969 63.6719C306.594 64.5781 306.156 65.4062 305.656 66.1562C305.156 66.875 304.641 67.4688 304.109 67.9375C303.609 68.375 303.109 68.6719 302.609 68.8281C302.141 68.9844 301.75 68.9531 301.438 68.7344C300.969 68.4219 300.578 68.0469 300.266 67.6094C299.984 67.1406 299.734 66.6562 299.516 66.1562C299.328 65.625 299.156 65.0781 299 64.5156C298.844 63.9531 298.656 63.375 298.438 62.7812C298.125 61.875 297.719 60.4219 297.219 58.4219C296.75 56.4219 296.203 54.0938 295.578 51.4375C294.953 48.75 294.297 45.8281 293.609 42.6719C292.922 39.4844 292.219 36.2656 291.5 33.0156C290.781 29.7344 290.078 26.5312 289.391 23.4062C288.734 20.25 288.109 17.3438 287.516 14.6875C287.359 15.7812 287.109 17.375 286.766 19.4688C286.422 21.5312 286.016 23.9062 285.547 26.5938C285.109 29.25 284.625 32.1094 284.094 35.1719C283.562 38.2344 283.031 41.2969 282.5 44.3594C282 47.4219 281.5 50.3906 281 53.2656C280.531 56.1406 280.094 58.7344 279.688 61.0469C279.312 63.3594 278.984 65.2812 278.703 66.8125C278.453 68.3125 278.312 69.25 278.281 69.625C278.281 69.9062 278.219 70.2031 278.094 70.5156C278 70.7656 277.859 71.0312 277.672 71.3125C277.516 71.625 277.297 71.9219 277.016 72.2031C276.766 72.2969 276.516 72.3906 276.266 72.4844C276.016 72.5781 275.797 72.5781 275.609 72.4844C275.391 72.3906 275.266 72.2188 275.234 71.9688C275.203 71.75 275.031 71.5469 274.719 71.3594C274.531 71.2031 274.328 71.0781 274.109 70.9844C273.891 70.9219 273.688 70.7188 273.5 70.375C273.5 70.1562 273.469 69.9844 273.406 69.8594C273.375 69.7969 273.344 69.75 273.312 69.7188C273.281 69.6875 273.234 69.625 273.172 69.5312C273.109 69.4375 272.922 69.2344 272.609 68.9219C272.422 68.5469 272.281 68.1406 272.188 67.7031C272.125 67.2344 272.172 66.6562 272.328 65.9688C272.391 65.75 272.516 65.1875 272.703 64.2812C272.891 63.3438 273.109 62.2188 273.359 60.9062C273.641 59.5625 273.938 58.0938 274.25 56.5C274.562 54.875 274.875 53.2344 275.188 51.5781C275.5 49.9219 275.781 48.3281 276.031 46.7969C276.312 45.2656 276.547 43.9062 276.734 42.7188C276.922 41.6875 277.219 40.2344 277.625 38.3594C278.062 36.4531 278.562 34.3438 279.125 32.0312C279.688 29.7188 280.281 27.2969 280.906 24.7656C281.562 22.2344 282.188 19.7969 282.781 17.4531C283.375 15.0781 283.906 12.9062 284.375 10.9375C284.875 8.9375 285.25 7.34375 285.5 6.15625C285.438 6 285.391 5.84375 285.359 5.6875C285.328 5.53125 285.312 5.375 285.312 5.21875C285.188 4.90625 285.203 4.73438 285.359 4.70312C285.547 4.67187 285.688 4.60938 285.781 4.51562C285.781 4.45313 285.797 4.40625 285.828 4.375C285.859 4.34375 285.875 4.29687 285.875 4.23438C285.875 4.04688 285.906 3.95312 285.969 3.95312C285.969 3.54687 286.031 3.28125 286.156 3.15625C286.281 3.03125 286.406 2.95313 286.531 2.92188C286.688 2.89062 286.828 2.875 286.953 2.875C287.078 2.875 287.156 2.78125 287.188 2.59375C287.25 2.1875 287.312 1.92188 287.375 1.79688C287.469 1.64063 287.562 1.57812 287.656 1.60938C287.781 1.60938 287.938 1.67187 288.125 1.79688C288.312 1.89062 288.547 2 288.828 2.125C288.984 2.1875 289.109 2.21875 289.203 2.21875C289.328 2.1875 289.453 2.1875 289.578 2.21875C289.703 2.21875 289.844 2.25 290 2.3125C290.188 2.375 290.406 2.5 290.656 2.6875C290.844 2.84375 291 2.92188 291.125 2.92188C291.281 2.92188 291.406 2.875 291.5 2.78125C291.625 2.6875 291.719 2.57813 291.781 2.45312C291.875 2.32812 291.953 2.21875 292.016 2.125C292.109 1.96875 292.25 1.89062 292.438 1.89062C292.625 1.89062 292.797 1.96875 292.953 2.125C293.141 2.375 293.281 2.54688 293.375 2.64062C293.5 2.73438 293.578 2.8125 293.609 2.875C293.672 2.90625 293.703 2.9375 293.703 2.96875C293.703 2.96875 293.719 3.01562 293.75 3.10938C294.219 4.51562 294.625 5.98437 294.969 7.51562C295.344 9.04688 295.719 10.7969 296.094 12.7656C296.5 14.7344 296.969 17.0156 297.5 19.6094C298.031 22.1719 298.703 25.2031 299.516 28.7031C300.859 34.6406 302.031 39.6406 303.031 43.7031C304.031 47.7344 304.875 50.7656 305.562 52.7969C306.188 51.3594 306.938 49.6094 307.812 47.5469C308.719 45.4844 309.672 43.25 310.672 40.8438C311.672 38.4062 312.719 35.8906 313.812 33.2969C314.906 30.6719 315.984 28.0781 317.047 25.5156C318.109 22.9531 319.125 20.5 320.094 18.1562C321.094 15.8125 321.969 13.7031 322.719 11.8281C323.5 9.95312 324.156 8.375 324.688 7.09375C325.219 5.8125 325.562 4.98438 325.719 4.60938C325.906 4.17188 326.047 3.8125 326.141 3.53125C326.266 3.25 326.406 3.03125 326.562 2.875C326.656 2.625 326.781 2.45312 326.938 2.35938C327.125 2.23437 327.328 2.21875 327.547 2.3125C327.609 2.375 327.688 2.42187 327.781 2.45312C327.844 2.51562 327.906 2.5625 327.969 2.59375C328.062 2.59375 328.141 2.625 328.203 2.6875C328.234 2.53125 328.297 2.45312 328.391 2.45312C328.484 2.42187 328.594 2.40625 328.719 2.40625C328.844 2.4375 328.984 2.46875 329.141 2.5H329.281H329.469C329.562 2.4375 329.656 2.39063 329.75 2.35938C329.844 2.29688 329.938 2.3125 330.031 2.40625C330.312 2.5625 330.5 2.57813 330.594 2.45312C330.719 2.29688 330.906 2.21875 331.156 2.21875C331.312 2.21875 331.453 2.20313 331.578 2.17188C331.672 2.14062 331.766 2.10938 331.859 2.07812C331.953 2.01563 332.016 1.9375 332.047 1.84375C332.172 1.84375 332.266 1.85937 332.328 1.89062C332.422 1.92188 332.5 1.95312 332.562 1.98438L332.703 2.125C332.797 2.25 332.938 2.79687 333.125 3.76562C333.312 4.70312 333.516 5.875 333.734 7.28125C333.984 8.65625 334.219 10.1562 334.438 11.7812C334.688 13.4062 334.906 14.9531 335.094 16.4219C335.156 16.9219 335.281 18.0312 335.469 19.75C335.656 21.4375 335.875 23.5156 336.125 25.9844C336.375 28.4219 336.656 31.1406 336.969 34.1406C337.281 37.1406 337.594 40.1719 337.906 43.2344C338.219 46.2969 338.516 49.2969 338.797 52.2344C339.078 55.1406 339.312 57.75 339.5 60.0625C339.719 62.375 339.875 64.2812 339.969 65.7812C340.094 67.25 340.141 68.0781 340.109 68.2656ZM362.234 4.51562C362.234 10.1719 362.125 15.9219 361.906 21.7656C361.688 27.5781 361.531 33.3594 361.438 39.1094C361.406 41.7344 361.422 44.3438 361.484 46.9375C361.578 49.5 361.672 51.9531 361.766 54.2969C361.891 56.6094 362 58.7344 362.094 60.6719C362.188 62.5781 362.234 64.1875 362.234 65.5C362.234 66.4062 362.203 67.1406 362.141 67.7031C362.078 68.2344 361.969 68.5469 361.812 68.6406C361.656 68.7969 361.516 68.8906 361.391 68.9219C361.266 68.9531 361.141 68.9688 361.016 68.9688C360.891 68.9688 360.75 68.9688 360.594 68.9688C360.469 68.9375 360.312 68.9688 360.125 69.0625C359.906 69.1562 359.766 69.2656 359.703 69.3906C359.641 69.4844 359.578 69.5938 359.516 69.7188C359.453 69.8438 359.359 69.9688 359.234 70.0938C359.109 70.2188 358.891 70.3438 358.578 70.4688C358.172 70.5625 357.781 70.4531 357.406 70.1406C357.062 69.8594 356.719 69.625 356.375 69.4375C355.844 69.125 355.406 68.875 355.062 68.6875C354.75 68.4688 354.453 68.1406 354.172 67.7031C353.953 67.3281 353.766 66.7656 353.609 66.0156C353.453 65.2344 353.328 64.3281 353.234 63.2969C353.141 62.2344 353.078 61.0625 353.047 59.7812C353.016 58.5 353 57.1719 353 55.7969C353 54.2344 353.016 52.6719 353.047 51.1094C353.078 49.5156 353.109 48 353.141 46.5625C353.203 45.125 353.25 43.8281 353.281 42.6719C353.312 41.5156 353.344 40.5781 353.375 39.8594C353.438 37.6094 353.516 35.25 353.609 32.7812C353.734 30.3125 353.844 27.8594 353.938 25.4219C354.062 22.9531 354.188 20.5781 354.312 18.2969C354.438 16.0156 354.562 13.9375 354.688 12.0625C354.812 10.1562 354.922 8.54688 355.016 7.23438C355.141 5.89062 355.266 4.95312 355.391 4.42188C355.578 3.76562 355.906 3.39062 356.375 3.29688C356.594 3.20312 356.766 3.21875 356.891 3.34375C357.047 3.46875 357.219 3.39062 357.406 3.10938C357.469 2.95313 357.562 2.85938 357.688 2.82812C357.812 2.79687 357.938 2.78125 358.062 2.78125C358.188 2.78125 358.312 2.78125 358.438 2.78125C358.562 2.78125 358.672 2.75 358.766 2.6875C358.953 2.5 359.141 2.46875 359.328 2.59375C359.547 2.6875 359.703 2.78125 359.797 2.875C359.891 3.09375 360.016 3.26562 360.172 3.39062C360.328 3.48438 360.5 3.45312 360.688 3.29688C360.781 3.20312 360.906 3.15625 361.062 3.15625C361.25 3.15625 361.375 3.23438 361.438 3.39062C361.531 3.54687 361.688 3.70313 361.906 3.85938C362.125 4.01562 362.234 4.23438 362.234 4.51562ZM411.359 36.0156C411.109 36.2031 410.844 36.4062 410.562 36.625C410.281 36.8438 410.094 37.125 410 37.4688C409.938 37.8125 409.844 38.2031 409.719 38.6406C409.594 39.0469 409.312 39.3281 408.875 39.4844C408.656 39.5469 408.094 39.625 407.188 39.7188C406.281 39.7812 405.234 39.8594 404.047 39.9531C402.859 40.0469 401.609 40.125 400.297 40.1875C399.016 40.25 397.875 40.2656 396.875 40.2344C396.062 40.2344 395.078 40.2656 393.922 40.3281C392.922 40.3906 391.672 40.4844 390.172 40.6094C388.703 40.7031 386.969 40.875 384.969 41.125C384.875 42.9062 384.812 44.7656 384.781 46.7031C384.75 48.6094 384.719 50.5 384.688 52.375C384.656 54.25 384.641 56.0469 384.641 57.7656C384.641 59.4531 384.641 60.9375 384.641 62.2188V66.625C384.703 67.2188 384.609 67.875 384.359 68.5938C384.141 69.2812 383.766 69.7188 383.234 69.9062C382.734 70.0625 382.312 70.2188 381.969 70.375C381.656 70.5625 381.312 70.6875 380.938 70.75C380.75 70.7812 380.484 70.7969 380.141 70.7969C379.828 70.7969 379.5 70.7656 379.156 70.7031C378.844 70.6406 378.547 70.5156 378.266 70.3281C378.016 70.1406 377.844 69.875 377.75 69.5312C377.625 69.1562 377.484 68.7969 377.328 68.4531C377.203 68.0781 377.078 67.5469 376.953 66.8594C376.828 66.1406 376.703 65.1719 376.578 63.9531C376.453 62.7344 376.359 61.1094 376.297 59.0781C376.234 57.4531 376.25 55.4062 376.344 52.9375C376.469 50.4688 376.625 47.8281 376.812 45.0156C377.031 42.2031 377.266 39.3438 377.516 36.4375C377.797 33.5 378.062 30.7656 378.312 28.2344C378.562 25.7031 378.781 23.4844 378.969 21.5781C379.156 19.6719 379.297 18.3125 379.391 17.5C379.453 16.875 379.516 16.2344 379.578 15.5781C379.641 15.0156 379.703 14.4062 379.766 13.75C379.828 13.0938 379.891 12.4531 379.953 11.8281C379.391 11.8281 378.812 11.8281 378.219 11.8281C377.656 11.8281 377.281 11.7969 377.094 11.7344C376.625 11.6719 376.172 11.5469 375.734 11.3594C375.297 11.1719 374.906 10.9688 374.562 10.75C374.219 10.5 373.922 10.25 373.672 10C373.422 9.75 373.281 9.5 373.25 9.25C373.219 9.0625 373.234 8.89062 373.297 8.73438C373.359 8.57813 373.453 8.45312 373.578 8.35938C373.703 8.23437 373.906 8.14062 374.188 8.07812C374 7.54688 373.969 7.17188 374.094 6.95312C374.125 6.82812 374.188 6.75 374.281 6.71875C374.469 6.65625 374.719 6.57812 375.031 6.48438C375.375 6.35937 375.641 6.21875 375.828 6.0625C375.891 5.96875 376.016 5.85938 376.203 5.73438C376.422 5.60937 376.641 5.5 376.859 5.40625C377.078 5.28125 377.281 5.17188 377.469 5.07812C377.688 4.98438 377.844 4.92188 377.938 4.89062C378 4.85937 378.312 4.79688 378.875 4.70312C379.469 4.57812 380.188 4.45313 381.031 4.32812C381.906 4.17188 382.844 4.01562 383.844 3.85938C384.875 3.70313 385.859 3.57812 386.797 3.48438C387.453 3.42188 388.562 3.35937 390.125 3.29688C391.719 3.20312 393.531 3.125 395.562 3.0625C397.594 2.96875 399.719 2.90625 401.938 2.875C404.156 2.8125 406.234 2.78125 408.172 2.78125C409.859 2.78125 411.328 2.8125 412.578 2.875C413.828 2.90625 414.703 2.98437 415.203 3.10938C415.953 3.26562 416.547 3.4375 416.984 3.625C417.453 3.78125 417.812 3.9375 418.062 4.09375C418.312 4.25 418.469 4.40625 418.531 4.5625C418.625 4.6875 418.656 4.76562 418.625 4.79688C418.625 4.85937 418.609 4.9375 418.578 5.03125C418.516 5.21875 418.438 5.375 418.344 5.5C418.656 5.6875 418.844 5.875 418.906 6.0625C418.938 6.1875 418.953 6.28125 418.953 6.34375C418.922 6.46875 418.859 6.67188 418.766 6.95312C418.703 7.23438 418.641 7.54688 418.578 7.89062C418.516 8.20313 418.453 8.53125 418.391 8.875C418.359 9.1875 418.375 9.4375 418.438 9.625C418.531 10 418.594 10.3125 418.625 10.5625C418.656 10.8125 418.594 11.0156 418.438 11.1719C418.375 11.2344 418.281 11.2656 418.156 11.2656C418 11.2969 417.719 11.2656 417.312 11.1719C417.344 11.2656 417.234 11.3438 416.984 11.4062C416.859 11.4375 416.734 11.4531 416.609 11.4531C416.453 11.4531 415.938 11.4375 415.062 11.4062C414.188 11.3438 413.078 11.2812 411.734 11.2188C410.391 11.125 408.891 11.0625 407.234 11.0312C405.578 10.9688 403.906 10.9375 402.219 10.9375C401.125 10.9375 400.031 10.9688 398.938 11.0312C397.875 11.0625 396.859 11.1094 395.891 11.1719C394.359 11.2656 392.797 11.3594 391.203 11.4531C389.609 11.5156 388.062 11.5781 386.562 11.6406C386.219 16.4844 385.953 20.6875 385.766 24.25C385.578 27.8125 385.438 30.7031 385.344 32.9219C387.062 32.5781 388.656 32.3281 390.125 32.1719C391.594 31.9844 392.875 31.8281 393.969 31.7031C395.219 31.5781 396.375 31.4844 397.438 31.4219C398.812 31.3906 400.125 31.3906 401.375 31.4219C402.625 31.4531 403.75 31.5 404.75 31.5625C405.781 31.625 406.656 31.7031 407.375 31.7969C408.125 31.8906 408.656 31.9844 408.969 32.0781C409.531 32.2344 409.953 32.4531 410.234 32.7344C410.516 33.0156 410.766 33.4062 410.984 33.9062C411.172 34.375 411.328 34.8125 411.453 35.2188C411.578 35.5938 411.547 35.8594 411.359 36.0156ZM469.906 4.51562C470.125 4.51562 470.25 4.57812 470.281 4.70312C470.312 4.79688 470.156 4.96875 469.812 5.21875C469.75 5.28125 469.719 5.34375 469.719 5.40625C469.719 5.4375 469.719 5.48438 469.719 5.54688C469.719 5.60937 469.688 5.70312 469.625 5.82812C469.594 5.92188 469.5 6.0625 469.344 6.25C469.062 6.5625 468.547 7.1875 467.797 8.125C467.047 9.0625 466.156 10.2031 465.125 11.5469C464.094 12.8594 462.953 14.3281 461.703 15.9531C460.484 17.5781 459.219 19.25 457.906 20.9688C456.625 22.6875 455.344 24.4062 454.062 26.125C452.812 27.8125 451.641 29.4062 450.547 30.9062C449.453 32.375 448.5 33.6875 447.688 34.8438C446.875 35.9688 446.281 36.8438 445.906 37.4688V38.9688C445.906 40.1562 445.875 41.5938 445.812 43.2812C445.781 44.9688 445.734 46.7656 445.672 48.6719C445.609 50.5469 445.547 52.4531 445.484 54.3906C445.422 56.3281 445.359 58.125 445.297 59.7812C445.234 61.4375 445.172 62.8906 445.109 64.1406C445.078 65.3906 445.062 66.2812 445.062 66.8125C445.062 67.25 445.031 67.5781 444.969 67.7969C444.938 68.0156 444.875 68.1719 444.781 68.2656C444.688 68.3281 444.547 68.3594 444.359 68.3594C444.203 68.3594 443.984 68.3594 443.703 68.3594C443.422 68.3594 443.266 68.2656 443.234 68.0781C443.203 67.8906 443.141 67.7656 443.047 67.7031C442.953 67.6719 442.891 67.7344 442.859 67.8906C442.828 68.0469 442.812 68.2188 442.812 68.4062C442.812 68.5938 442.797 68.7656 442.766 68.9219C442.766 69.0781 442.734 69.1562 442.672 69.1562C442.484 69.1562 442.281 69.1094 442.062 69.0156C441.875 68.8906 441.688 68.7656 441.5 68.6406C441.344 68.5156 441.188 68.4219 441.031 68.3594C440.906 68.2656 440.812 68.2344 440.75 68.2656C440.688 68.2969 440.672 68.3594 440.703 68.4531C440.734 68.5469 440.75 68.6406 440.75 68.7344C440.75 68.8281 440.734 68.9062 440.703 68.9688C440.672 69 440.594 68.9844 440.469 68.9219C440.312 68.8906 440.156 68.8281 440 68.7344C439.844 68.6094 439.703 68.5156 439.578 68.4531C439.453 68.3594 439.344 68.3281 439.25 68.3594C439.188 68.3594 439.141 68.4531 439.109 68.6406C439.047 69.0781 439 69.5156 438.969 69.9531C438.938 70.3594 438.828 70.5312 438.641 70.4688C438.328 70.4062 437.922 70.2812 437.422 70.0938C436.922 69.9062 436.625 69.5156 436.531 68.9219C436.469 68.5469 436.438 68.0781 436.438 67.5156C436.438 66.9531 436.438 66.3125 436.438 65.5938C436.438 64 436.469 62.1406 436.531 60.0156C436.625 57.8906 436.719 55.7188 436.812 53.5C436.906 51.2812 436.984 49.1406 437.047 47.0781C437.141 45.0156 437.188 43.25 437.188 41.7812C437.188 39.7812 437.094 38.5938 436.906 38.2188C436.75 37.9688 436.266 37.2031 435.453 35.9219C434.641 34.6094 433.625 33.0156 432.406 31.1406C431.219 29.2344 429.891 27.1406 428.422 24.8594C426.984 22.5781 425.562 20.3281 424.156 18.1094C422.781 15.8594 421.484 13.75 420.266 11.7812C419.078 9.8125 418.125 8.1875 417.406 6.90625C417.281 6.6875 417.188 6.45312 417.125 6.20312C417.062 5.92188 417.016 5.65625 416.984 5.40625C416.953 5.15625 416.953 4.95312 416.984 4.79688C417.016 4.60938 417.062 4.48437 417.125 4.42188C417.25 4.35938 417.422 4.29687 417.641 4.23438C417.828 4.17188 418.062 4.14062 418.344 4.14062C418.625 4.10937 418.984 4.10937 419.422 4.14062C419.547 4.51562 419.656 4.75 419.75 4.84375C419.844 4.9375 419.938 4.96875 420.031 4.9375C420.125 4.875 420.219 4.78125 420.312 4.65625C420.406 4.5 420.5 4.39062 420.594 4.32812C420.938 3.98438 421.156 3.79688 421.25 3.76562C421.344 3.73437 421.562 3.85938 421.906 4.14062C422.219 4.42188 422.453 4.5 422.609 4.375C422.766 4.25 422.984 3.95312 423.266 3.48438C423.547 3.07812 423.859 2.98437 424.203 3.20312C424.578 3.39062 425 3.76562 425.469 4.32812L426.172 5.125C426.547 5.5625 427.125 6.35937 427.906 7.51562C428.688 8.64062 429.578 9.98438 430.578 11.5469C431.609 13.1094 432.703 14.8281 433.859 16.7031C435.047 18.5469 436.219 20.4062 437.375 22.2812C438.531 24.1562 439.641 25.9688 440.703 27.7188C441.766 29.4688 442.703 31.0156 443.516 32.3594C444.172 31.2031 445.047 29.7656 446.141 28.0469C447.266 26.2969 448.469 24.4531 449.75 22.5156C451.031 20.5781 452.359 18.625 453.734 16.6562C455.109 14.6562 456.406 12.8125 457.625 11.125C458.844 9.4375 459.922 8 460.859 6.8125C461.828 5.59375 462.547 4.79688 463.016 4.42188C463.234 4.23438 463.422 4.09375 463.578 4C463.766 3.90625 463.922 3.84375 464.047 3.8125C464.203 3.75 464.344 3.71875 464.469 3.71875C464.625 3.71875 464.781 3.70313 464.938 3.67188C465.406 3.67188 465.703 3.70313 465.828 3.76562C465.984 3.82812 466.078 3.89063 466.109 3.95312C466.172 4.01562 466.219 4.07813 466.25 4.14062C466.312 4.17188 466.453 4.17188 466.672 4.14062C467.141 4.07813 467.594 4.04688 468.031 4.04688C468.469 4.04688 468.719 4.14062 468.781 4.32812C468.781 4.39062 468.828 4.4375 468.922 4.46875C469.016 4.5 469.344 4.51562 469.906 4.51562Z" fill="#00FF66"/>
</svg>
